<mxfile host="app.diagrams.net" agent="Mozilla/5.0 (X11; Linux x86_64) AppleWebKit/537.36 (KHTML, like Gecko) Chrome/123.0.0.0 Safari/537.36" version="28.2.1">
  <diagram name="Page-1" id="t6AL2heMyjgZO3ZHIskM">
    <mxGraphModel dx="1863" dy="618" grid="1" gridSize="10" guides="1" tooltips="1" connect="1" arrows="1" fold="1" page="1" pageScale="1" pageWidth="827" pageHeight="1169" math="0" shadow="0">
      <root>
        <mxCell id="0" />
        <mxCell id="1" parent="0" />
        <mxCell id="JhHrOgRUZ8Q60iZAMZSm-1" style="edgeStyle=none;rounded=0;orthogonalLoop=1;jettySize=auto;html=1;exitX=0.5;exitY=1;exitDx=0;exitDy=0;entryX=0.5;entryY=0;entryDx=0;entryDy=0;" edge="1" parent="1" source="s9sHe1rxRqdTOS15MlrJ-5" target="s9sHe1rxRqdTOS15MlrJ-6">
          <mxGeometry relative="1" as="geometry" />
        </mxCell>
        <mxCell id="s9sHe1rxRqdTOS15MlrJ-5" value="plan" style="ellipse;whiteSpace=wrap;html=1;aspect=fixed;" parent="1" vertex="1">
          <mxGeometry x="-690" y="30" width="80" height="80" as="geometry" />
        </mxCell>
        <mxCell id="JhHrOgRUZ8Q60iZAMZSm-2" style="edgeStyle=none;rounded=0;orthogonalLoop=1;jettySize=auto;html=1;exitX=0.5;exitY=1;exitDx=0;exitDy=0;entryX=0.5;entryY=0;entryDx=0;entryDy=0;" edge="1" parent="1" source="s9sHe1rxRqdTOS15MlrJ-6" target="s9sHe1rxRqdTOS15MlrJ-7">
          <mxGeometry relative="1" as="geometry" />
        </mxCell>
        <mxCell id="s9sHe1rxRqdTOS15MlrJ-6" value="develop" style="ellipse;whiteSpace=wrap;html=1;aspect=fixed;" parent="1" vertex="1">
          <mxGeometry x="-690" y="150" width="80" height="80" as="geometry" />
        </mxCell>
        <mxCell id="JhHrOgRUZ8Q60iZAMZSm-3" style="edgeStyle=none;rounded=0;orthogonalLoop=1;jettySize=auto;html=1;exitX=0.5;exitY=1;exitDx=0;exitDy=0;entryX=0.5;entryY=0;entryDx=0;entryDy=0;" edge="1" parent="1" source="s9sHe1rxRqdTOS15MlrJ-7" target="s9sHe1rxRqdTOS15MlrJ-8">
          <mxGeometry relative="1" as="geometry" />
        </mxCell>
        <mxCell id="s9sHe1rxRqdTOS15MlrJ-7" value="build" style="ellipse;whiteSpace=wrap;html=1;aspect=fixed;" parent="1" vertex="1">
          <mxGeometry x="-690" y="260" width="80" height="80" as="geometry" />
        </mxCell>
        <mxCell id="JhHrOgRUZ8Q60iZAMZSm-4" style="edgeStyle=none;rounded=0;orthogonalLoop=1;jettySize=auto;html=1;exitX=0.5;exitY=1;exitDx=0;exitDy=0;entryX=0.5;entryY=0;entryDx=0;entryDy=0;" edge="1" parent="1" source="s9sHe1rxRqdTOS15MlrJ-8" target="s9sHe1rxRqdTOS15MlrJ-9">
          <mxGeometry relative="1" as="geometry" />
        </mxCell>
        <mxCell id="s9sHe1rxRqdTOS15MlrJ-8" value="test" style="ellipse;whiteSpace=wrap;html=1;aspect=fixed;" parent="1" vertex="1">
          <mxGeometry x="-690" y="360" width="80" height="80" as="geometry" />
        </mxCell>
        <mxCell id="JhHrOgRUZ8Q60iZAMZSm-5" style="edgeStyle=none;rounded=0;orthogonalLoop=1;jettySize=auto;html=1;exitX=0.5;exitY=1;exitDx=0;exitDy=0;entryX=0.5;entryY=0;entryDx=0;entryDy=0;" edge="1" parent="1" source="s9sHe1rxRqdTOS15MlrJ-9" target="s9sHe1rxRqdTOS15MlrJ-10">
          <mxGeometry relative="1" as="geometry" />
        </mxCell>
        <mxCell id="s9sHe1rxRqdTOS15MlrJ-9" value="release" style="ellipse;whiteSpace=wrap;html=1;aspect=fixed;" parent="1" vertex="1">
          <mxGeometry x="-690" y="470" width="80" height="80" as="geometry" />
        </mxCell>
        <mxCell id="JhHrOgRUZ8Q60iZAMZSm-6" style="edgeStyle=none;rounded=0;orthogonalLoop=1;jettySize=auto;html=1;exitX=0.5;exitY=1;exitDx=0;exitDy=0;entryX=0.5;entryY=0;entryDx=0;entryDy=0;" edge="1" parent="1" source="s9sHe1rxRqdTOS15MlrJ-10" target="s9sHe1rxRqdTOS15MlrJ-11">
          <mxGeometry relative="1" as="geometry" />
        </mxCell>
        <mxCell id="s9sHe1rxRqdTOS15MlrJ-10" value="deploy" style="ellipse;whiteSpace=wrap;html=1;aspect=fixed;" parent="1" vertex="1">
          <mxGeometry x="-690" y="580" width="80" height="80" as="geometry" />
        </mxCell>
        <mxCell id="JhHrOgRUZ8Q60iZAMZSm-7" style="edgeStyle=none;rounded=0;orthogonalLoop=1;jettySize=auto;html=1;exitX=0.5;exitY=1;exitDx=0;exitDy=0;entryX=0.5;entryY=0;entryDx=0;entryDy=0;" edge="1" parent="1" source="s9sHe1rxRqdTOS15MlrJ-11" target="s9sHe1rxRqdTOS15MlrJ-12">
          <mxGeometry relative="1" as="geometry" />
        </mxCell>
        <mxCell id="s9sHe1rxRqdTOS15MlrJ-11" value="operate" style="ellipse;whiteSpace=wrap;html=1;aspect=fixed;" parent="1" vertex="1">
          <mxGeometry x="-690" y="680" width="80" height="80" as="geometry" />
        </mxCell>
        <mxCell id="s9sHe1rxRqdTOS15MlrJ-12" value="monitor" style="ellipse;whiteSpace=wrap;html=1;aspect=fixed;" parent="1" vertex="1">
          <mxGeometry x="-690" y="790" width="80" height="80" as="geometry" />
        </mxCell>
        <mxCell id="s9sHe1rxRqdTOS15MlrJ-13" value="" style="endArrow=classic;html=1;rounded=0;" parent="1" edge="1">
          <mxGeometry relative="1" as="geometry">
            <mxPoint x="3070" y="140" as="sourcePoint" />
            <mxPoint x="3230" y="140" as="targetPoint" />
            <Array as="points">
              <mxPoint x="3170" y="140" />
            </Array>
          </mxGeometry>
        </mxCell>
        <mxCell id="s9sHe1rxRqdTOS15MlrJ-14" value="Label" style="edgeLabel;resizable=0;html=1;;align=center;verticalAlign=middle;" parent="s9sHe1rxRqdTOS15MlrJ-13" connectable="0" vertex="1">
          <mxGeometry relative="1" as="geometry" />
        </mxCell>
        <mxCell id="s9sHe1rxRqdTOS15MlrJ-15" value="Source" style="edgeLabel;resizable=0;html=1;;align=left;verticalAlign=bottom;" parent="s9sHe1rxRqdTOS15MlrJ-13" connectable="0" vertex="1">
          <mxGeometry x="-1" relative="1" as="geometry" />
        </mxCell>
      </root>
    </mxGraphModel>
  </diagram>
</mxfile>
